<svg width="100" height="100" viewBox="0 0 100 100" fill="none" xmlns="http://www.w3.org/2000/svg">
<path d="M49.7401 71.38C52.1922 71.38 54.18 69.3921 54.18 66.94C54.18 64.4879 52.1922 62.5 49.7401 62.5C47.2879 62.5 45.3 64.4879 45.3 66.94C45.3 69.3921 47.2879 71.38 49.7401 71.38Z" fill="#C9CACC"/>
<path d="M65.1401 39.71C65.1401 31.71 58.0001 27 49.7001 27C42.5901 27 38.6001 29.74 35.2401 34.09L35.1801 34.17C34.8944 34.584 34.7844 35.0943 34.8744 35.5892C34.9644 36.0841 35.2469 36.5231 35.6601 36.81L37.7401 38.26C38.1374 38.5378 38.6259 38.6532 39.1056 38.5825C39.5852 38.5119 40.0197 38.2605 40.3201 37.88C42.7001 34.88 45.0801 33.33 49.7001 33.33C55.9901 33.33 58.8001 36.53 58.8001 39.7C58.8001 46.62 46.5301 45.55 46.5301 56.7V56.76C46.5301 57.2639 46.7303 57.7472 47.0866 58.1035C47.4429 58.4598 47.9262 58.66 48.4301 58.66H51.0001C51.504 58.66 51.9873 58.4598 52.3436 58.1035C52.6999 57.7472 52.9001 57.2639 52.9001 56.76V56.7C52.8601 49.83 65.1401 50.39 65.1401 39.71Z" fill="#C9CACC"/>
<path d="M29.7401 30.9998L26.5301 27.3998C26.3799 27.2294 26.1683 27.1253 25.9416 27.1103C25.7149 27.0953 25.4914 27.1706 25.3201 27.3198L0.320081 49.3198C0.148167 49.4687 0.0421862 49.6795 0.0253202 49.9063C0.00845412 50.133 0.0820755 50.3572 0.230081 50.5298L0.320081 50.6198L25.3201 72.6998C25.496 72.849 25.7234 72.9232 25.9535 72.9063C26.1835 72.8895 26.3978 72.783 26.5501 72.6098V72.6798L29.7401 68.9998C29.8905 68.8298 29.9676 68.6071 29.9545 68.3804C29.9413 68.1537 29.8391 67.9414 29.6701 67.7898L8.66008 49.9998L29.6601 32.2098C29.8306 32.0596 29.9347 31.848 29.9496 31.6213C29.9646 31.3946 29.8893 31.1712 29.7401 30.9998Z" fill="#C9CACC"/>
<path d="M99.67 49.3699L74.67 27.3099C74.4955 27.1606 74.2701 27.0846 74.0409 27.0976C73.8117 27.1107 73.5964 27.2118 73.44 27.3799L70.22 30.9999C70.0695 31.1699 69.9925 31.3926 70.0056 31.6193C70.0187 31.846 70.1209 32.0583 70.29 32.2099L91.32 49.9999L70.32 67.7899C70.1466 67.9373 70.0387 68.1474 70.02 68.3742C70.0012 68.601 70.0731 68.826 70.22 68.9999L73.43 72.6298C73.5745 72.8062 73.7832 72.9179 74.0101 72.9404C74.237 72.9629 74.4636 72.8943 74.64 72.7499L99.64 50.6698C99.8119 50.521 99.9179 50.3102 99.9347 50.0834C99.9516 49.8567 99.878 49.6325 99.73 49.4599L99.67 49.3699Z" fill="#C9CACC"/>
</svg>
